<svg xmlns="http://www.w3.org/2000/svg" width="5721" height="3754" viewBox="0 0 5721 3754">
  <defs>
    <style>
      .cls-1 {
        fill-rule: evenodd;
      }
    </style>
  </defs>
  <path id="Color_Fill_1" data-name="Color Fill 1" class="cls-1" d="M0,0H5721V2363c-125.34.4-219.96-12-347-12H5247c-15.74,2.72-20.97,10.83-40,11,0.33-.67.67-1.33,1-2,12.92-6.33,14.02-14.46,34-17,3.65-14.71,12.92-23.33,17-35,10.63-30.43-24.91-96.81-31-119-8.65-31.54,2.1-79.76-8-113-3.53-11.61-12.68-17.78-17-27-11.16-23.81-23.45-32.19-44-46-12.88-8.65-24.68-20.06-42-25-39.26-11.19-97.86-5-145-5-72.14,0-106.39-.16-145,33,0.31-57.56,8.95-154.94-22-180-12.94-10.47-33.06-23.39-51-27q-151.98-.495-304-1c-50.63-7.72-118.65,1.96-173-7-43.78-7.22-73.7-30.46-115-40H3886q-39.495,1.005-79,2l-109,24c-37.22,6.59-81.4-2.34-123,4-36.75,5.6-73.73,5.42-108,12q-40.995.495-82,1-53.49,11.505-107,23h-95c-15.09,2.45-34.61,4.06-46,11q-6,4.995-12,10-10.995,3.495-22,7c-23.95,20.87-15,94.67-15,138v314q1.995,19.5,4,39c5.13,14.51,23.46,25.9,19,45h-82c-21.75,3.96-36.35,16.03-66,11-17.54-2.98-28.02-13.05-46-17q-101.49.495-203,1-33.495,11.505-67,23-69.99-.495-140-1c-27.81-4.42-51.6-10.71-74-17q-62.49-1.005-125-2c-15.15-5.52-17.9-29.03-37-34-15.91-4.14-53.95,8.96-69,12-28.29,5.7-54.67,6-88,6q-24.99.495-50,1-22.995,11.505-46,23h-74c-62.38,0-134.76-3.99-188,6H1648q-56.49-.495-113-1l-67-3q-16.995-7.995-34-16c-12.1-4.91-25.82-4.11-40-8q-7.005-4.5-14-9-16.005-2.505-32-5c-25.25-4.7-79.79-1.57-100,4-22.12,6.1-42.15,20.49-66,26q-22.995-.495-46-1-23.505-1.005-47-2-24.99-7.5-50-15c-23.62-5.48-63.644-.66-80,6-16.2,6.6-27.312,18.4-49,22-16.711,2.77-42.692-17.87-57-22H561l-45,12q-96.49-.495-193-1c-57.751-10.29-123.209-10.99-195-11-25.163,0-60.6-5.07-82,2L7,2398H6q-3-219.48-6-439V0ZM5017,2045c25.88-.23,57.36-2.27,76,7l21,21c9.5,7.17,20.71,13.97,27,24q7.005,22.995,14,46c6.39,8.88,19.13,13.44,26,23,0.21,25.35,5.32,96.13-2,114l-18,18c-11.62,20.33-18.57,40.08-37,53-9.43,6.61-22.59,3.32-35,8-10.2,3.84-19.04,14.03-32,17-44.91,10.28-94.77,1.04-132-7h-74c-30.67-4.64-51.94-5.87-77-12-0.07-14.25,3.8-25.39,6-35v-55q5.505-6,11-12l40-3c8.92-19.73,21.7-41.88,27-66,3.59-16.32-3.14-34.5,4-46,14.44-23.28,33.31-35.72,55-52Q4928,2078,4939,2068C4961.6,2058.99,4997.52,2056.28,5017,2045Z"/>
</svg>
